<?xml version="1.0" encoding="UTF-8" standalone="no"?>
<svg
   xmlns:dc="http://purl.org/dc/elements/1.1/"
   xmlns:cc="http://creativecommons.org/ns#"
   xmlns:rdf="http://www.w3.org/1999/02/22-rdf-syntax-ns#"
   xmlns:svg="http://www.w3.org/2000/svg"
   xmlns="http://www.w3.org/2000/svg"
   xmlns:sodipodi="http://sodipodi.sourceforge.net/DTD/sodipodi-0.dtd"
   xmlns:inkscape="http://www.inkscape.org/namespaces/inkscape"
   id="svg1400"
   version="1.1"
   viewBox="0 0 23.859747 23.859747"
   height="23.859747mm"
   width="23.859747mm"
   sodipodi:docname="App-grau.svg"
   inkscape:version="0.92.5 (2060ec1f9f, 2020-04-08)">
  <sodipodi:namedview
     pagecolor="#ffffff"
     bordercolor="#666666"
     borderopacity="1"
     objecttolerance="10"
     gridtolerance="10"
     guidetolerance="10"
     inkscape:pageopacity="0"
     inkscape:pageshadow="2"
     inkscape:window-width="1848"
     inkscape:window-height="1016"
     id="namedview9"
     showgrid="false"
     inkscape:zoom="2.6170297"
     inkscape:cx="45.089286"
     inkscape:cy="45.089286"
     inkscape:window-x="1992"
     inkscape:window-y="27"
     inkscape:window-maximized="1"
     inkscape:current-layer="svg1400" />
  <defs
     id="defs1394" />
  <metadata
     id="metadata1397">
    <rdf:RDF>
      <cc:Work
         rdf:about="">
        <dc:format>image/svg+xml</dc:format>
        <dc:type
           rdf:resource="http://purl.org/dc/dcmitype/StillImage" />
        <dc:title />
      </cc:Work>
    </rdf:RDF>
  </metadata>
  <rect
     ry="3.9087646"
     y="2.1777344e-06"
     x="-3.6987306e-06"
     height="23.859747"
     width="23.859747"
     id="rect28"
     style="fill:#969696;fill-opacity:1;stroke:none;stroke-width:17.69223785;stroke-miterlimit:4;stroke-dasharray:none;stroke-opacity:1" />
  <g
     id="g6"
     transform="matrix(0.03649932,0,0,-0.03649932,-103.50668,25.63962)"
     style="fill:#ffffff;fill-opacity:1">
    <path
       inkscape:connector-curvature="0"
       style="fill:#ffffff;fill-opacity:1;stroke-width:0.64666831"
       id="path4"
       d="M 2938.0555,633.9116 V 484.97095 h 44.8207 c 17.6217,0 26.4293,9.32884 26.4293,27.72849 v 50.95035 h 223.6567 c 65.32,0 97.9767,-34.70539 97.9767,-101.93432 V 406.296 h -321.6334 l 0.01,-33.63645 c 0,-18.30913 -8.8917,-27.72332 -26.4293,-27.72332 h -60.6639 v -91.04444 c 0,-91.04444 45.5233,-136.56988 137.5572,-136.56988 h 182.0953 c 106.8749,0 161.3114,55.41883 161.3114,165.26902 V 468.6374 c 0,109.84956 -54.4365,165.26903 -161.3114,165.26903 z m 187.3981,-288.97667 h 48.3449 c 32.5663,0 44.9564,-16.72026 44.9564,-47.91683 v -72.93772 c 0,-24.77063 -12.4225,-37.6154 -36.7049,-37.6154 h -24.942 c -21.0361,0 -31.6544,12.44836 -31.6544,37.16079 v 121.30852" />
  </g>
</svg>
