<?xml version="1.0" encoding="UTF-8" standalone="no"?>
<!-- Created with Inkscape (http://www.inkscape.org/) -->

<svg
   xmlns:dc="http://purl.org/dc/elements/1.1/"
   xmlns:cc="http://creativecommons.org/ns#"
   xmlns:rdf="http://www.w3.org/1999/02/22-rdf-syntax-ns#"
   xmlns:svg="http://www.w3.org/2000/svg"
   xmlns="http://www.w3.org/2000/svg"
   xmlns:sodipodi="http://sodipodi.sourceforge.net/DTD/sodipodi-0.dtd"
   xmlns:inkscape="http://www.inkscape.org/namespaces/inkscape"
   width="49.632107"
   height="27.910067"
   viewBox="0 0 13.131828 7.3845386"
   version="1.1"
   id="svg5"
   sodipodi:docname="capitalization-icon-help.svg"
   inkscape:version="0.92.5 (2060ec1f9f, 2020-04-08)">
  <metadata
     id="metadata11">
    <rdf:RDF>
      <cc:Work
         rdf:about="">
        <dc:format>image/svg+xml</dc:format>
        <dc:type
           rdf:resource="http://purl.org/dc/dcmitype/StillImage" />
        <dc:title></dc:title>
      </cc:Work>
    </rdf:RDF>
  </metadata>
  <sodipodi:namedview
     pagecolor="#ffffff"
     bordercolor="#666666"
     borderopacity="1"
     objecttolerance="10"
     gridtolerance="10"
     guidetolerance="10"
     inkscape:pageopacity="0"
     inkscape:pageshadow="2"
     inkscape:window-width="640"
     inkscape:window-height="480"
     id="namedview9"
     showgrid="false"
     fit-margin-top="0"
     fit-margin-left="0"
     fit-margin-right="0"
     fit-margin-bottom="0"
     inkscape:zoom="7.7570757"
     inkscape:cx="28.876862"
     inkscape:cy="13.955034"
     inkscape:window-x="0"
     inkscape:window-y="0"
     inkscape:window-maximized="0"
     inkscape:current-layer="svg5" />
  <defs
     id="defs2" />
  <path
     style="font-size:10.58329964px;line-height:1.25;font-family:'Liberation Sans';-inkscape-font-specification:'Liberation Sans';fill:#666666;stroke-width:0.26458299"
     inkscape:connector-curvature="0"
     id="path6932"
     d="M 6.0099499,7.2811861 5.177962,5.1521239 H 1.8603456 L 1.0231901,7.2811861 H 0 L 2.9713854,0 h 1.121375 L 7.0176375,7.2811861 Z M 3.5191538,0.7441382 3.4726452,0.8888318 Q 3.3434545,1.3177448 3.0902408,1.9895363 L 2.160068,4.3821475 H 4.8834073 L 3.9480669,1.979201 Q 3.8033733,1.6226348 3.6586798,1.1730512 Z" />
  <path
     style="font-size:10.58329964px;line-height:1.25;font-family:'Liberation Sans';-inkscape-font-specification:'Liberation Sans';fill:#666666;stroke-width:0.26458299"
     inkscape:connector-curvature="0"
     id="path6934"
     d="m 9.3852984,7.3845386 q -0.842324,0 -1.266069,-0.4444159 -0.4237455,-0.4444159 -0.4237455,-1.2195599 0,-0.8681613 0.5684385,-1.3332477 0.573607,-0.4650864 1.8448436,-0.4960922 l 1.255733,-0.02067 v -0.30489 q 0,-0.6821267 -0.289388,-0.9766814 -0.289387,-0.2945548 -0.909502,-0.2945548 -0.6252826,0 -0.9095016,0.2118727 -0.28422,0.2118727 -0.341064,0.6769592 l -0.971513,-0.08785 q 0.237711,-1.508947 2.2427496,-1.508947 1.054196,0 1.586462,0.4857569 0.532265,0.4805893 0.532265,1.3952592 v 2.4081141 q 0,0.4134101 0.108521,0.6252828 0.108519,0.2067051 0.413409,0.2067051 0.134358,0 0.304891,-0.036173 v 0.5787742 q -0.3514,0.082682 -0.7183,0.082682 -0.516764,0 -0.754474,-0.2687166 -0.232544,-0.2738848 -0.263549,-0.852659 h -0.03101 Q 11.007932,6.8522731 10.532511,7.1209897 10.062257,7.3845386 9.3852984,7.3845386 Z M 9.5971714,6.686909 q 0.5115946,0 0.9095016,-0.2325432 0.397908,-0.2325432 0.625283,-0.6356181 0.232543,-0.4082425 0.232543,-0.8371555 V 4.5216734 l -1.018022,0.02067 q -0.6562886,0.010336 -0.9973516,0.1343588 -0.335896,0.124023 -0.516763,0.3824044 -0.180867,0.2583813 -0.180867,0.6769591 0,0.4547511 0.242879,0.7027972 0.248046,0.2480461 0.702797,0.2480461 z" />
</svg>
