<?xml version="1.0" encoding="UTF-8" standalone="no"?>
<svg
   xmlns:dc="http://purl.org/dc/elements/1.1/"
   xmlns:cc="http://creativecommons.org/ns#"
   xmlns:rdf="http://www.w3.org/1999/02/22-rdf-syntax-ns#"
   xmlns:svg="http://www.w3.org/2000/svg"
   xmlns="http://www.w3.org/2000/svg"
   xmlns:xlink="http://www.w3.org/1999/xlink"
   id="svg10"
   xml:space="preserve"
   viewBox="0 0 192.85953 398.53102"
   version="1.1"
   height="74.832336"
   width="87.514915"><defs
     id="defs14"><linearGradient
       xlink:href="#linearGradient6206"
       id="linearGradient6210"
       gradientUnits="userSpaceOnUse"
       x1="-293.63593"
       y1="3.2192702"
       x2="-258.68027"
       y2="13.229791" /><linearGradient
       id="linearGradient6206"><stop
         style="stop-color:#ffec00;stop-opacity:1"
         offset="0"
         id="stop6202" /><stop
         style="stop-color:#ff0000;stop-opacity:1"
         offset="1"
         id="stop6204" /></linearGradient></defs><metadata
     id="metadata2"><rdf:RDF><cc:Work
         rdf:about=""><dc:format>image/svg+xml</dc:format><dc:type
           rdf:resource="http://purl.org/dc/dcmitype/StillImage" /><dc:title></dc:title></cc:Work></rdf:RDF></metadata><g
     id="g8"
     transform="matrix(6.4131855,0,0,-6.4131855,-1935.3288,416.0147)"><g
       id="layer1"
       transform="matrix(2.0600602,0,0,-1.954417,280.47242,579.78551)"><g
         id="g61"
         transform="rotate(-45,12.388336,277.04149)"><g
           id="g112"><g
             id="g120"><g
               id="g125"><path
                 id="path26-6"
                 transform="rotate(-90)"
                 style="fill:url(#linearGradient6210);fill-opacity:1;stroke-width:0.42132547"
                 d="m -262.5319,13.229773 a 11.083057,10.010504 0 0 1 -11.08306,10.010503 11.083057,10.010504 0 0 1 -11.08306,-10.010503 11.083057,10.010504 0 0 1 11.08306,-10.0105042 11.083057,10.010504 0 0 1 11.08306,10.0105042 z m -21.09353,21.093558 a 10.010503,11.083056 0 0 1 -10.0105,-11.083057 10.010503,11.083056 0 0 1 10.0105,-11.083056 10.010503,11.083056 0 0 1 10.01051,11.083056 10.010503,11.083056 0 0 1 -10.01051,11.083057 z M -273.61496,3.2192702 V 23.240276 h -20.02098 V 3.2192702 Z" /></g></g></g></g></g></g></svg>