<?xml version="1.0" encoding="UTF-8" standalone="no"?>
<svg
   xmlns:dc="http://purl.org/dc/elements/1.1/"
   xmlns:cc="http://creativecommons.org/ns#"
   xmlns:rdf="http://www.w3.org/1999/02/22-rdf-syntax-ns#"
   xmlns:svg="http://www.w3.org/2000/svg"
   xmlns="http://www.w3.org/2000/svg"
   id="svg868"
   version="1.1"
   viewBox="0 0 58.53315 127.06201"
   height="127.06201mm"
   width="58.53315mm">
  <defs
     id="defs862" />
  <metadata
     id="metadata865">
    <rdf:RDF>
      <cc:Work
         rdf:about="">
        <dc:format>image/svg+xml</dc:format>
        <dc:type
           rdf:resource="http://purl.org/dc/dcmitype/StillImage" />
        <dc:title></dc:title>
      </cc:Work>
    </rdf:RDF>
  </metadata>
  <g
     transform="translate(-32.72152,-30.207088)"
     id="layer1">
    <g
       transform="translate(28.79664,-48.836911)"
       id="g1172">
      <path
         id="path1112"
         d="m 4.0878183,117.33831 c 0,0 -0.027166,2.81153 0,3.94328 0.025831,1.07612 0.020286,2.80636 0.011948,3.99925 -0.011948,1.31788 -0.2765313,1.0533 1.2705574,1.74538 4.4091516,1.46972 8.8183033,2.93943 13.2274553,4.40915 1.395523,0.42184 1.36504,0.27868 1.36504,1.768 v 55.71842 c -1e-6,1.17693 -0.433095,1.3213 -1.415906,1.6489 -4.426835,1.47561 -8.853668,2.95121 -13.2805016,4.42682 -1.2011163,0.2836 -1.1785931,0.49145 -1.1785931,1.70681 v 7.8662 c -0.074121,1.38538 -0.1204619,1.4032 1.2035867,1.4032 h 55.607383 c 1.397364,0 1.397364,0 1.397364,-1.31952 v -7.94988 c 0.129497,-1.53353 -0.143286,-1.36172 -1.340441,-1.76075 L 47.625,190.5 c -1.203848,-0.66586 -1.203848,-0.5549 -1.203848,-1.82926 v -71.35018 c 0,-1.30517 -0.0062,-1.30517 -1.322917,-1.30517 l -27.7689,-0.16295 c 0,0 -9.2727667,0.16295 -11.9186,0.16295 -1.3229167,0 -1.3229167,0 -1.3229167,1.32292 z"
         style="fill:#000000;fill-opacity:1;stroke:#000000;stroke-width:0.26458299px;stroke-linecap:butt;stroke-linejoin:miter;stroke-opacity:1" />
      <circle
         r="15.875"
         cy="95.25"
         cx="31.75"
         id="path1136"
         style="fill:#000000;fill-opacity:1;stroke:#030601;stroke-width:0.66200101;stroke-opacity:1" />
    </g>
  </g>
</svg>
