<?xml version="1.0" encoding="UTF-8" standalone="no"?>
<svg
   xmlns:dc="http://purl.org/dc/elements/1.1/"
   xmlns:cc="http://creativecommons.org/ns#"
   xmlns:rdf="http://www.w3.org/1999/02/22-rdf-syntax-ns#"
   xmlns:svg="http://www.w3.org/2000/svg"
   xmlns="http://www.w3.org/2000/svg"
   xmlns:sodipodi="http://sodipodi.sourceforge.net/DTD/sodipodi-0.dtd"
   xmlns:inkscape="http://www.inkscape.org/namespaces/inkscape"
   id="svg8"
   version="1.1"
   viewBox="0 0 100.7184 99.835083"
   height="377.32944"
   width="380.66797"
   sodipodi:docname="icon-services.svg"
   inkscape:version="0.92.5 (2060ec1f9f, 2020-04-08)">
  <sodipodi:namedview
     pagecolor="#ffffff"
     bordercolor="#666666"
     borderopacity="1"
     objecttolerance="10"
     gridtolerance="10"
     guidetolerance="10"
     inkscape:pageopacity="0"
     inkscape:pageshadow="2"
     inkscape:window-width="833"
     inkscape:window-height="480"
     id="namedview10"
     showgrid="false"
     inkscape:zoom="0.62544815"
     inkscape:cx="190.33398"
     inkscape:cy="188.66472"
     inkscape:window-x="0"
     inkscape:window-y="0"
     inkscape:window-maximized="0"
     inkscape:current-layer="svg8" />
  <defs
     id="defs2" />
  <metadata
     id="metadata5">
    <rdf:RDF>
      <cc:Work
         rdf:about="">
        <dc:format>image/svg+xml</dc:format>
        <dc:type
           rdf:resource="http://purl.org/dc/dcmitype/StillImage" />
        <dc:title />
      </cc:Work>
    </rdf:RDF>
  </metadata>
  <g
     transform="rotate(-90,94.012303,133.12572)"
     id="layer1">
    <path
       transform="scale(0.26458333)"
       id="path1606"
       d=""
       style="fill:#000201;fill-opacity:1;stroke:#020300;stroke-width:2.0013299;stroke-miterlimit:4;stroke-dasharray:none;stroke-opacity:1"
       inkscape:connector-curvature="0" />
    <g
       transform="rotate(45.404583,176.18947,81.645426)"
       id="g1721">
      <path
         d="m 193.14584,28.666985 v 26.895516 l -10.58333,5.291666 -10.58334,-5.291666 V 28.667502 a 26.458332,26.458332 0 0 0 -15.875,24.249165 26.458332,26.458332 0 0 0 26.45834,26.458333 26.458332,26.458332 0 0 0 26.45833,-26.458333 26.458332,26.458332 0 0 0 -15.875,-24.249682 z"
         style="fill:#000000;fill-opacity:1;stroke-width:2.4000001"
         id="path1694"
         inkscape:connector-curvature="0" />
      <path
         transform="matrix(0.26458333,0,0,0.26458333,116.41666,23.812501)"
         d="M 243.53516,160 C 224.95666,160 210,174.95664 210,193.53516 v 257.10351 c 0,18.5785 14.95666,33.53516 33.53516,33.53516 h 12.92968 C 275.04334,484.17383 290,469.21717 290,450.63867 V 193.53516 C 290,174.95664 275.04334,160 256.46484,160 Z M 250,431.5332 a 15.665621,15.665621 0 0 1 0.33203,0.004 15.665621,15.665621 0 0 1 0.33399,0.0117 15.665621,15.665621 0 0 1 0.33203,0.0176 15.665621,15.665621 0 0 1 0.33203,0.0234 15.665621,15.665621 0 0 1 0.33008,0.0312 15.665621,15.665621 0 0 1 0.33203,0.0391 15.665621,15.665621 0 0 1 0.33008,0.0469 15.665621,15.665621 0 0 1 0.32812,0.0527 15.665621,15.665621 0 0 1 0.32617,0.0586 15.665621,15.665621 0 0 1 0.32617,0.0684 15.665621,15.665621 0 0 1 0.32618,0.0723 15.665621,15.665621 0 0 1 0.32226,0.082 15.665621,15.665621 0 0 1 0.32031,0.0859 15.665621,15.665621 0 0 1 0.32032,0.0937 15.665621,15.665621 0 0 1 0.3164,0.10157 15.665621,15.665621 0 0 1 0.31446,0.10742 15.665621,15.665621 0 0 1 0.3125,0.11523 15.665621,15.665621 0 0 1 0.31054,0.1211 15.665621,15.665621 0 0 1 0.3086,0.12695 15.665621,15.665621 0 0 1 0.30468,0.13476 15.665621,15.665621 0 0 1 0.30079,0.13868 15.665621,15.665621 0 0 1 0.29882,0.14843 15.665621,15.665621 0 0 1 0.29493,0.15235 15.665621,15.665621 0 0 1 0.29296,0.16015 15.665621,15.665621 0 0 1 0.28907,0.16407 15.665621,15.665621 0 0 1 0.28515,0.17187 15.665621,15.665621 0 0 1 0.28125,0.17774 15.665621,15.665621 0 0 1 0.27735,0.18359 15.665621,15.665621 0 0 1 0.27343,0.18945 15.665621,15.665621 0 0 1 0.26954,0.19532 15.665621,15.665621 0 0 1 0.26562,0.20117 15.665621,15.665621 0 0 1 0.26172,0.20703 15.665621,15.665621 0 0 1 0.25586,0.21094 15.665621,15.665621 0 0 1 0.25195,0.21679 15.665621,15.665621 0 0 1 0.24805,0.22266 15.665621,15.665621 0 0 1 0.24219,0.22851 15.665621,15.665621 0 0 1 0.23828,0.23243 15.665621,15.665621 0 0 1 0.23242,0.23828 15.665621,15.665621 0 0 1 0.22656,0.24414 15.665621,15.665621 0 0 1 0.22266,0.24609 15.665621,15.665621 0 0 1 0.2168,0.25391 15.665621,15.665621 0 0 1 0.21093,0.25586 15.665621,15.665621 0 0 1 0.20703,0.26172 15.665621,15.665621 0 0 1 0.20118,0.26562 15.665621,15.665621 0 0 1 0.19336,0.26953 15.665621,15.665621 0 0 1 0.18945,0.27344 15.665621,15.665621 0 0 1 0.18359,0.2793 15.665621,15.665621 0 0 1 0.17774,0.28125 15.665621,15.665621 0 0 1 0.16992,0.28515 15.665621,15.665621 0 0 1 0.16601,0.28907 15.665621,15.665621 0 0 1 0.15821,0.29296 15.665621,15.665621 0 0 1 0.15429,0.29493 15.665621,15.665621 0 0 1 0.14453,0.29882 15.665621,15.665621 0 0 1 0.14063,0.30274 15.665621,15.665621 0 0 1 0.13477,0.30469 15.665621,15.665621 0 0 1 0.12695,0.30664 15.665621,15.665621 0 0 1 0.11914,0.31054 15.665621,15.665621 0 0 1 0.11523,0.3125 15.665621,15.665621 0 0 1 0.10547,0.31641 15.665621,15.665621 0 0 1 0.10157,0.31641 15.665621,15.665621 0 0 1 0.0937,0.31836 15.665621,15.665621 0 0 1 0.0859,0.32226 15.665621,15.665621 0 0 1 0.0801,0.32227 15.665621,15.665621 0 0 1 0.0742,0.32617 15.665621,15.665621 0 0 1 0.0664,0.32617 15.665621,15.665621 0 0 1 0.0586,0.32617 15.665621,15.665621 0 0 1 0.0527,0.33008 15.665621,15.665621 0 0 1 0.0449,0.32813 15.665621,15.665621 0 0 1 0.0391,0.33203 15.665621,15.665621 0 0 1 0.0312,0.33007 15.665621,15.665621 0 0 1 0.0234,0.33204 15.665621,15.665621 0 0 1 0.0176,0.33203 15.665621,15.665621 0 0 1 0.01,0.33398 15.665621,15.665621 0 0 1 0.004,0.31055 15.665621,15.665621 0 0 1 -0.004,0.33203 15.665621,15.665621 0 0 1 -0.01,0.33398 15.665621,15.665621 0 0 1 -0.0176,0.33204 15.665621,15.665621 0 0 1 -0.0254,0.33203 15.665621,15.665621 0 0 1 -0.0313,0.33203 15.665621,15.665621 0 0 1 -0.0391,0.33008 15.665621,15.665621 0 0 1 -0.0469,0.33007 15.665621,15.665621 0 0 1 -0.0527,0.32813 15.665621,15.665621 0 0 1 -0.0586,0.32617 15.665621,15.665621 0 0 1 -0.0664,0.32617 15.665621,15.665621 0 0 1 -0.0742,0.32617 15.665621,15.665621 0 0 1 -0.0801,0.32227 15.665621,15.665621 0 0 1 -0.0879,0.32031 15.665621,15.665621 0 0 1 -0.0937,0.32032 15.665621,15.665621 0 0 1 -0.10157,0.3164 15.665621,15.665621 0 0 1 -0.10742,0.31446 15.665621,15.665621 0 0 1 -0.11523,0.3125 15.665621,15.665621 0 0 1 -0.1211,0.31054 15.665621,15.665621 0 0 1 -0.12695,0.3086 15.665621,15.665621 0 0 1 -0.13281,0.30468 15.665621,15.665621 0 0 1 -0.14063,0.30078 15.665621,15.665621 0 0 1 -0.14648,0.29883 15.665621,15.665621 0 0 1 -0.1543,0.29492 15.665621,15.665621 0 0 1 -0.1582,0.29297 15.665621,15.665621 0 0 1 -0.16602,0.28907 15.665621,15.665621 0 0 1 -0.17187,0.28515 15.665621,15.665621 0 0 1 -0.17774,0.28125 15.665621,15.665621 0 0 1 -0.18359,0.27735 15.665621,15.665621 0 0 1 -0.18945,0.27343 15.665621,15.665621 0 0 1 -0.19532,0.26953 15.665621,15.665621 0 0 1 -0.20117,0.26563 15.665621,15.665621 0 0 1 -0.20508,0.26172 15.665621,15.665621 0 0 1 -0.21289,0.25586 15.665621,15.665621 0 0 1 -0.21679,0.25195 15.665621,15.665621 0 0 1 -0.22266,0.24805 15.665621,15.665621 0 0 1 -0.22852,0.24219 15.665621,15.665621 0 0 1 -0.23242,0.23828 15.665621,15.665621 0 0 1 -0.23828,0.23242 15.665621,15.665621 0 0 1 -0.24219,0.22656 15.665621,15.665621 0 0 1 -0.24804,0.22266 15.665621,15.665621 0 0 1 -0.25196,0.21679 15.665621,15.665621 0 0 1 -0.25781,0.21094 15.665621,15.665621 0 0 1 -0.26172,0.20703 15.665621,15.665621 0 0 1 -0.26562,0.20117 15.665621,15.665621 0 0 1 -0.26953,0.19336 15.665621,15.665621 0 0 1 -0.27344,0.18946 15.665621,15.665621 0 0 1 -0.27734,0.18359 15.665621,15.665621 0 0 1 -0.28321,0.17774 15.665621,15.665621 0 0 1 -0.28515,0.16992 15.665621,15.665621 0 0 1 -0.28907,0.16601 15.665621,15.665621 0 0 1 -0.29101,0.15821 15.665621,15.665621 0 0 1 -0.29688,0.15429 15.665621,15.665621 0 0 1 -0.29883,0.14453 15.665621,15.665621 0 0 1 -0.30273,0.14063 15.665621,15.665621 0 0 1 -0.30469,0.13476 15.665621,15.665621 0 0 1 -0.30664,0.12696 15.665621,15.665621 0 0 1 -0.31055,0.11914 15.665621,15.665621 0 0 1 -0.3125,0.11523 15.665621,15.665621 0 0 1 -0.31445,0.10547 15.665621,15.665621 0 0 1 -0.31836,0.10156 15.665621,15.665621 0 0 1 -0.31836,0.0937 15.665621,15.665621 0 0 1 -0.32226,0.0859 15.665621,15.665621 0 0 1 -0.32227,0.0801 15.665621,15.665621 0 0 1 -0.32422,0.0742 15.665621,15.665621 0 0 1 -0.32617,0.0664 15.665621,15.665621 0 0 1 -0.32812,0.0586 15.665621,15.665621 0 0 1 -0.32813,0.0527 15.665621,15.665621 0 0 1 -0.33008,0.0449 15.665621,15.665621 0 0 1 -0.33203,0.0391 15.665621,15.665621 0 0 1 -0.33008,0.0312 15.665621,15.665621 0 0 1 -0.33203,0.0234 15.665621,15.665621 0 0 1 -0.33203,0.0176 15.665621,15.665621 0 0 1 -0.33398,0.01 15.665621,15.665621 0 0 1 -0.31055,0.004 15.665621,15.665621 0 0 1 -0.33203,-0.004 15.665621,15.665621 0 0 1 -0.33399,-0.01 15.665621,15.665621 0 0 1 -0.33203,-0.0176 15.665621,15.665621 0 0 1 -0.33203,-0.0254 15.665621,15.665621 0 0 1 -0.33008,-0.0312 15.665621,15.665621 0 0 1 -0.33203,-0.0391 15.665621,15.665621 0 0 1 -0.32812,-0.0469 15.665621,15.665621 0 0 1 -0.33008,-0.0527 15.665621,15.665621 0 0 1 -0.32617,-0.0586 15.665621,15.665621 0 0 1 -0.32617,-0.0664 15.665621,15.665621 0 0 1 -0.32422,-0.0742 15.665621,15.665621 0 0 1 -0.32422,-0.0801 15.665621,15.665621 0 0 1 -0.32031,-0.0879 15.665621,15.665621 0 0 1 -0.32032,-0.0937 15.665621,15.665621 0 0 1 -0.3164,-0.10156 15.665621,15.665621 0 0 1 -0.31446,-0.10742 15.665621,15.665621 0 0 1 -0.3125,-0.11523 15.665621,15.665621 0 0 1 -0.31054,-0.1211 15.665621,15.665621 0 0 1 -0.30664,-0.12695 15.665621,15.665621 0 0 1 -0.30469,-0.13281 15.665621,15.665621 0 0 1 -0.30274,-0.14063 15.665621,15.665621 0 0 1 -0.29882,-0.14648 15.665621,15.665621 0 0 1 -0.29493,-0.1543 15.665621,15.665621 0 0 1 -0.29296,-0.1582 15.665621,15.665621 0 0 1 -0.28907,-0.16602 15.665621,15.665621 0 0 1 -0.28515,-0.17187 15.665621,15.665621 0 0 1 -0.28125,-0.17774 15.665621,15.665621 0 0 1 -0.27735,-0.18359 15.665621,15.665621 0 0 1 -0.27343,-0.18945 15.665621,15.665621 0 0 1 -0.26954,-0.19532 15.665621,15.665621 0 0 1 -0.26562,-0.20117 15.665621,15.665621 0 0 1 -0.25977,-0.20508 15.665621,15.665621 0 0 1 -0.25781,-0.21289 15.665621,15.665621 0 0 1 -0.25195,-0.2168 15.665621,15.665621 0 0 1 -0.24805,-0.22265 15.665621,15.665621 0 0 1 -0.24219,-0.22852 15.665621,15.665621 0 0 1 -0.23632,-0.23242 15.665621,15.665621 0 0 1 -0.23438,-0.23828 15.665621,15.665621 0 0 1 -0.22656,-0.24219 15.665621,15.665621 0 0 1 -0.22266,-0.24804 15.665621,15.665621 0 0 1 -0.2168,-0.25196 15.665621,15.665621 0 0 1 -0.21093,-0.25781 15.665621,15.665621 0 0 1 -0.20703,-0.26172 15.665621,15.665621 0 0 1 -0.20118,-0.26562 15.665621,15.665621 0 0 1 -0.19336,-0.26953 15.665621,15.665621 0 0 1 -0.18945,-0.27344 15.665621,15.665621 0 0 1 -0.18359,-0.27735 15.665621,15.665621 0 0 1 -0.17774,-0.2832 15.665621,15.665621 0 0 1 -0.16992,-0.28516 15.665621,15.665621 0 0 1 -0.16601,-0.28906 15.665621,15.665621 0 0 1 -0.15821,-0.29101 15.665621,15.665621 0 0 1 -0.15234,-0.29688 15.665621,15.665621 0 0 1 -0.14648,-0.29883 15.665621,15.665621 0 0 1 -0.14063,-0.30078 15.665621,15.665621 0 0 1 -0.13281,-0.30664 15.665621,15.665621 0 0 1 -0.12696,-0.30664 15.665621,15.665621 0 0 1 -0.12109,-0.31055 15.665621,15.665621 0 0 1 -0.11328,-0.3125 15.665621,15.665621 0 0 1 -0.10742,-0.31445 15.665621,15.665621 0 0 1 -0.10157,-0.31836 15.665621,15.665621 0 0 1 -0.0937,-0.31836 15.665621,15.665621 0 0 1 -0.0859,-0.32226 15.665621,15.665621 0 0 1 -0.0801,-0.32227 15.665621,15.665621 0 0 1 -0.0742,-0.32422 15.665621,15.665621 0 0 1 -0.0664,-0.32617 15.665621,15.665621 0 0 1 -0.0586,-0.32813 15.665621,15.665621 0 0 1 -0.0527,-0.32812 15.665621,15.665621 0 0 1 -0.0449,-0.33008 15.665621,15.665621 0 0 1 -0.0391,-0.33008 15.665621,15.665621 0 0 1 -0.0312,-0.33203 15.665621,15.665621 0 0 1 -0.0234,-0.33203 15.665621,15.665621 0 0 1 -0.0176,-0.33203 15.665621,15.665621 0 0 1 -0.01,-0.33398 15.665621,15.665621 0 0 1 -0.004,-0.31055 15.665621,15.665621 0 0 1 0.004,-0.33203 15.665621,15.665621 0 0 1 0.01,-0.33399 15.665621,15.665621 0 0 1 0.0195,-0.33203 15.665621,15.665621 0 0 1 0.0234,-0.33203 15.665621,15.665621 0 0 1 0.0313,-0.33008 15.665621,15.665621 0 0 1 0.0391,-0.33203 15.665621,15.665621 0 0 1 0.0469,-0.32812 15.665621,15.665621 0 0 1 0.0527,-0.33008 15.665621,15.665621 0 0 1 0.0586,-0.32617 15.665621,15.665621 0 0 1 0.0684,-0.32618 15.665621,15.665621 0 0 1 0.0723,-0.32421 15.665621,15.665621 0 0 1 0.0801,-0.32422 15.665621,15.665621 0 0 1 0.0879,-0.32032 15.665621,15.665621 0 0 1 0.0937,-0.32031 15.665621,15.665621 0 0 1 0.10157,-0.3164 15.665621,15.665621 0 0 1 0.10742,-0.31446 15.665621,15.665621 0 0 1 0.11523,-0.3125 15.665621,15.665621 0 0 1 0.1211,-0.31054 15.665621,15.665621 0 0 1 0.12695,-0.30664 15.665621,15.665621 0 0 1 0.13281,-0.30469 15.665621,15.665621 0 0 1 0.14063,-0.30274 15.665621,15.665621 0 0 1 0.14843,-0.29883 15.665621,15.665621 0 0 1 0.15235,-0.29492 15.665621,15.665621 0 0 1 0.16015,-0.29297 15.665621,15.665621 0 0 1 0.16407,-0.28906 15.665621,15.665621 0 0 1 0.17187,-0.28515 15.665621,15.665621 0 0 1 0.17774,-0.28125 15.665621,15.665621 0 0 1 0.18359,-0.27735 15.665621,15.665621 0 0 1 0.18945,-0.27344 15.665621,15.665621 0 0 1 0.19532,-0.26953 15.665621,15.665621 0 0 1 0.20117,-0.26562 15.665621,15.665621 0 0 1 0.20703,-0.25977 15.665621,15.665621 0 0 1 0.21094,-0.25781 15.665621,15.665621 0 0 1 0.21679,-0.25195 15.665621,15.665621 0 0 1 0.22266,-0.24805 15.665621,15.665621 0 0 1 0.22852,-0.24219 15.665621,15.665621 0 0 1 0.23242,-0.23633 15.665621,15.665621 0 0 1 0.23828,-0.23437 15.665621,15.665621 0 0 1 0.24414,-0.22656 15.665621,15.665621 0 0 1 0.24609,-0.22266 15.665621,15.665621 0 0 1 0.25391,-0.2168 15.665621,15.665621 0 0 1 0.25586,-0.21093 15.665621,15.665621 0 0 1 0.26172,-0.20703 15.665621,15.665621 0 0 1 0.26562,-0.20118 15.665621,15.665621 0 0 1 0.26953,-0.19336 15.665621,15.665621 0 0 1 0.27344,-0.18945 15.665621,15.665621 0 0 1 0.2793,-0.18359 15.665621,15.665621 0 0 1 0.28125,-0.17774 15.665621,15.665621 0 0 1 0.28515,-0.16992 15.665621,15.665621 0 0 1 0.28907,-0.16602 15.665621,15.665621 0 0 1 0.29297,-0.1582 15.665621,15.665621 0 0 1 0.29492,-0.15234 15.665621,15.665621 0 0 1 0.29883,-0.14649 15.665621,15.665621 0 0 1 0.30273,-0.14062 15.665621,15.665621 0 0 1 0.30469,-0.13281 15.665621,15.665621 0 0 1 0.30664,-0.12696 15.665621,15.665621 0 0 1 0.31055,-0.12109 15.665621,15.665621 0 0 1 0.3125,-0.11328 15.665621,15.665621 0 0 1 0.31445,-0.10742 15.665621,15.665621 0 0 1 0.31836,-0.10157 15.665621,15.665621 0 0 1 0.31836,-0.0937 15.665621,15.665621 0 0 1 0.32226,-0.0859 15.665621,15.665621 0 0 1 0.32227,-0.0801 15.665621,15.665621 0 0 1 0.32617,-0.0742 15.665621,15.665621 0 0 1 0.32617,-0.0664 15.665621,15.665621 0 0 1 0.32617,-0.0586 15.665621,15.665621 0 0 1 0.33008,-0.0527 15.665621,15.665621 0 0 1 0.32813,-0.0449 15.665621,15.665621 0 0 1 0.33203,-0.0391 15.665621,15.665621 0 0 1 0.33008,-0.0312 15.665621,15.665621 0 0 1 0.33203,-0.0234 15.665621,15.665621 0 0 1 0.33203,-0.0176 15.665621,15.665621 0 0 1 0.33398,-0.01 15.665621,15.665621 0 0 1 0.31055,-0.004 z"
         style="fill:#000000;fill-opacity:1;stroke:none;stroke-width:6.50011015;stroke-miterlimit:4;stroke-dasharray:none;stroke-opacity:1"
         id="path1714"
         inkscape:connector-curvature="0" />
    </g>
  </g>
</svg>
