<?xml version="1.0" encoding="UTF-8" standalone="no"?>
<!-- Created with Inkscape (http://www.inkscape.org/) -->

<svg
   width="303.61429"
   height="195.91295"
   viewBox="0 0 80.331279 51.835302"
   version="1.1"
   id="svg18"
   xmlns="http://www.w3.org/2000/svg"
   xmlns:svg="http://www.w3.org/2000/svg">
  <defs
     id="defs15" />
  <g
     id="layer1"
     transform="translate(27.189395,6.7701886)">
    <path
       id="path1089"
       style="fill:#000000;fill-opacity:1;stroke:none;stroke-width:9.03386;stroke-opacity:1"
       d="M 144.30664 5.296875 A 140.87035 93.039934 0 0 0 3.4355469 98.337891 A 140.87035 93.039934 0 0 0 144.30664 191.37695 A 140.87035 93.039934 0 0 0 285.17578 98.337891 A 140.87035 93.039934 0 0 0 144.30664 5.296875 z M 144.08008 25.466797 A 17.972117 17.972117 0 0 1 162.05078 43.439453 A 17.972117 17.972117 0 0 1 144.08008 61.412109 A 17.972117 17.972117 0 0 1 126.10742 43.439453 A 17.972117 17.972117 0 0 1 144.08008 25.466797 z M 127.75391 66.763672 L 159.19141 66.947266 C 160.6819 66.947266 160.68945 66.948198 160.68945 68.425781 L 160.68945 149.20117 C 160.68945 150.64388 160.6879 150.51767 162.05078 151.27148 L 177.14258 156.30273 C 178.49788 156.75448 178.80676 156.55881 178.66016 158.29492 L 178.66016 167.29688 C 178.66016 168.79071 178.66008 168.78906 177.07812 168.78906 L 114.125 168.78906 C 112.62604 168.78906 112.67976 168.76956 112.76367 167.20117 L 112.76367 158.29492 C 112.76367 156.91901 112.73787 156.68435 114.09766 156.36328 C 119.10928 154.69274 124.12118 153.02211 129.13281 151.35156 C 130.24545 150.98069 130.73437 150.81678 130.73438 149.48438 L 130.73438 86.40625 C 130.73438 84.720173 130.76933 84.881863 129.18945 84.404297 C 124.19784 82.740424 119.20645 81.077935 114.21484 79.414062 C 112.46338 78.630559 112.76381 78.929476 112.77734 77.4375 C 112.78679 76.087026 112.79293 74.12843 112.76367 72.910156 C 112.73291 71.628896 112.76367 68.445312 112.76367 68.445312 C 112.76367 66.947637 112.76404 66.947266 114.26172 66.947266 C 117.25707 66.947266 127.75391 66.763672 127.75391 66.763672 z "
       transform="matrix(0.26458333,0,0,0.26458333,-27.189395,-6.7701886)" />
    <path
       style="fill:#000000;fill-opacity:1;stroke:none;stroke-width:1.14378;stroke-miterlimit:4;stroke-dasharray:none;stroke-opacity:1"
       d="M 52.463405,42.28709 C 50.134636,38.758509 46.823863,33.070281 43.530007,29.84385 l -1.378345,-1.292197 -1.417376,1.610513 c -0.779561,0.885801 -3.031033,2.797182 -5.003281,4.247531 l -3.585901,2.636979 -4.971393,0.531412 c -4.897668,0.523531 22.2093,4.516623 24.420039,4.755246 1.787265,0.19289 0.612,0.482441 0.869655,-0.04624 z"
       id="path1091" />
  </g>
</svg>
