<?xml version="1.0" encoding="UTF-8" standalone="no"?>
<svg
   xmlns:osb="http://www.openswatchbook.org/uri/2009/osb"
   xmlns:dc="http://purl.org/dc/elements/1.1/"
   xmlns:cc="http://creativecommons.org/ns#"
   xmlns:rdf="http://www.w3.org/1999/02/22-rdf-syntax-ns#"
   xmlns:svg="http://www.w3.org/2000/svg"
   xmlns="http://www.w3.org/2000/svg"
   id="svg8"
   version="1.1"
   viewBox="0 0 20.2868 22.110937"
   height="83.568893"
   width="76.674522">
  <defs
     id="defs2">
    <linearGradient
       osb:paint="solid"
       id="linearGradient873">
      <stop
         id="stop871"
         offset="0"
         style="stop-color:#ff0000;stop-opacity:1;" />
    </linearGradient>
  </defs>
  <metadata
     id="metadata5">
    <rdf:RDF>
      <cc:Work
         rdf:about="">
        <dc:format>image/svg+xml</dc:format>
        <dc:type
           rdf:resource="http://purl.org/dc/dcmitype/StillImage" />
        <dc:title></dc:title>
      </cc:Work>
    </rdf:RDF>
  </metadata>
  <g
     transform="translate(-3.4184229,-3.3590331)"
     id="layer1">
    <g
       transform="matrix(0.94051295,0,0,0.94051295,12.688618,13.321448)"
       id="g951">
      <path
         style="fill:#888888;fill-opacity:1;stroke:none;stroke-width:0.106914;stroke-miterlimit:4;stroke-dasharray:none;stroke-opacity:1"
         d="m 10.135492,10.776251 -1.5268189,-0.0017 -1e-6,-0.8071322 V 9.1602915 h -0.866408 l -0.866407,7e-7 -0.0029,-0.86748 -0.0029,-0.86748 -0.92705,-0.00273 -0.927051,-0.00273 -3.331638,-3.300666 -3.331637,-3.30066589 -0.660668,0.20667649 c -1.689156,0.5284253 -3.326308,0.4095897 -4.768506,-0.34612369 -0.58673,-0.3074467 -0.714851,-0.4111963 -1.323643,-1.0718548 -0.531751,-0.5770545 -0.727451,-0.84849281 -0.927087,-1.28587511 -0.8612711,-1.8869634 -0.661624,-4.1365143 0.527014,-5.9382279 1.779932,-2.6979853 5.273663,-3.7405363 7.97344004,-2.379325 0.555941,0.280302 0.75765,0.432943 1.344145,1.017158 0.60087796,0.598474 0.73045396,0.770674 1.00260096,1.331858 0.694921,1.4329399 0.801318,3.0543782 0.297548,4.5344753 l -0.159678,0.4691404 2.906917,2.90715631 c 1.59882,1.59891999 3.837403,3.87312629 4.974634,5.05378699 l 2.0676879,2.1466589 0.06775,1.6168194 c 0.03729,0.8892229 0.04971,1.6348564 0.02762,1.6569384 -0.02208,0.02208 -0.727216,0.03938 -1.566968,0.03845 z M 5.0165351,3.9490521 C 0.23552214,-0.83196119 0.19460714,-0.87089619 0.07582214,-0.75211149 c -0.118783,0.1187827 -0.07985,0.1597001 4.70116396,4.94071299 4.781013,4.7810138 4.821929,4.8199492 4.940713,4.7011644 0.118784,-0.1187833 0.07985,-0.1596979 -4.701164,-4.9407138 z m -7.737901,-10.8433558 c -0.03763,-0.315039 -0.371174,-0.698064 -0.638464,-0.733174 -0.379564,-0.04986 -0.548415,0.07969 -2.014106,1.5453861 -1.465692,1.4656916 -1.595248,1.6345431 -1.545387,2.0141068 0.03511,0.2672877 0.418138,0.6008314 0.733174,0.6384639 l 0.281916,0.033674 1.608268,-1.6082677 1.608267,-1.608267 z"
         id="path937" />
      <path
         id="path831"
         d="M -8.3687574,8.2904687 -5.4693718,11.491948 0.40944923,4.5325484"
         style="fill:none;stroke:#00ff00;stroke-width:1.87663555;stroke-linecap:butt;stroke-linejoin:miter;stroke-miterlimit:4;stroke-dasharray:none;stroke-opacity:1" />
    </g>
  </g>
</svg>
