<?xml version="1.0" encoding="UTF-8" standalone="no"?>
<svg
   xmlns:dc="http://purl.org/dc/elements/1.1/"
   xmlns:cc="http://creativecommons.org/ns#"
   xmlns:rdf="http://www.w3.org/1999/02/22-rdf-syntax-ns#"
   xmlns:svg="http://www.w3.org/2000/svg"
   xmlns="http://www.w3.org/2000/svg"
   id="svg10"
   xml:space="preserve"
   viewBox="0 0 122.2897 440.29525"
   version="1.1"
   height="82.674423"
   width="55.492058"><defs
     id="defs14" /><metadata
     id="metadata2"><rdf:RDF><cc:Work
         rdf:about=""><dc:format>image/svg+xml</dc:format><dc:type
           rdf:resource="http://purl.org/dc/dcmitype/StillImage" /><dc:title></dc:title></cc:Work></rdf:RDF></metadata><g
     id="g8"
     transform="matrix(6.4131855,0,0,-6.4131855,-1965.5301,482.64928)"><g
       transform="matrix(0.28404362,0,0,-0.28404362,279.85327,42.585989)"
       id="g832"><path
         d="M 53.023236,-115.02779 C 93.203317,-9.1875926 173.56347,18.252487 200.02353,79.012597 M 53.023236,-115.02779 C 21.663175,25.112487 107.90334,58.432577 119.66336,67.252607 c 37.24006,17.64 80.36017,11.75998 80.36017,11.75998"
         style="fill:#00bf00;fill-opacity:1;stroke:none;stroke-width:3.79839516;stroke-linecap:butt;stroke-linejoin:miter;stroke-miterlimit:4;stroke-dasharray:none;stroke-opacity:1"
         id="path819-2" /><g
         id="g826"><path
           id="path819"
           style="fill:#00dd00;fill-opacity:1;stroke:none;stroke-width:3.79839516;stroke-linecap:butt;stroke-linejoin:miter;stroke-miterlimit:4;stroke-dasharray:none;stroke-opacity:1"
           d="M 53.023236,-115.02779 C 93.203317,-9.1875926 173.56347,18.252477 200.02353,79.012587 m 0,0 c 0,0 0,0 0,0 C 221.15129,-97.096293 90.945732,-80.764829 53.023236,-115.02779 v 0 c 0,0 0,0 0,0" /></g><path
         style="fill:none;stroke:#00bf00;stroke-width:5.35946846;stroke-linecap:butt;stroke-linejoin:miter;stroke-miterlimit:4;stroke-dasharray:none;stroke-opacity:1"
         d="m 194.03214,71.75636 c 25.00107,50.62711 2.12939,52.24756 2.12939,52.24756"
         id="path825" /></g></g></svg>