<?xml version="1.0" encoding="UTF-8" standalone="no"?>
<!-- Created with Inkscape (http://www.inkscape.org/) -->

<svg
   xmlns:dc="http://purl.org/dc/elements/1.1/"
   xmlns:cc="http://creativecommons.org/ns#"
   xmlns:rdf="http://www.w3.org/1999/02/22-rdf-syntax-ns#"
   xmlns:svg="http://www.w3.org/2000/svg"
   xmlns="http://www.w3.org/2000/svg"
   xmlns:sodipodi="http://sodipodi.sourceforge.net/DTD/sodipodi-0.dtd"
   xmlns:inkscape="http://www.inkscape.org/namespaces/inkscape"
   width="27.076725mm"
   height="26.458357mm"
   viewBox="0 0 27.076725 26.458357"
   version="1.1"
   id="svg861"
   inkscape:version="0.92.5 (2060ec1f9f, 2020-04-08)"
   sodipodi:docname="maps-grau.svg">
  <defs
     id="defs855" />
  <sodipodi:namedview
     id="base"
     pagecolor="#ffffff"
     bordercolor="#666666"
     borderopacity="1.0"
     inkscape:pageopacity="0.0"
     inkscape:pageshadow="2"
     inkscape:zoom="6.1300268"
     inkscape:cx="71.978829"
     inkscape:cy="62.247327"
     inkscape:document-units="mm"
     inkscape:current-layer="layer1"
     showgrid="true"
     inkscape:window-width="1848"
     inkscape:window-height="1016"
     inkscape:window-x="1992"
     inkscape:window-y="27"
     inkscape:window-maximized="1"
     fit-margin-top="0"
     fit-margin-left="0"
     fit-margin-right="0"
     fit-margin-bottom="0">
    <inkscape:grid
       type="xygrid"
       id="grid833" />
  </sodipodi:namedview>
  <metadata
     id="metadata858">
    <rdf:RDF>
      <cc:Work
         rdf:about="">
        <dc:format>image/svg+xml</dc:format>
        <dc:type
           rdf:resource="http://purl.org/dc/dcmitype/StillImage" />
        <dc:title></dc:title>
      </cc:Work>
    </rdf:RDF>
  </metadata>
  <g
     inkscape:label="Ebene 1"
     inkscape:groupmode="layer"
     id="layer1"
     transform="translate(-95.318779,-128.80058)">
    <rect
       style="opacity:1;fill:#666666;fill-opacity:1;stroke:none;stroke-width:0.37185931;stroke-miterlimit:4;stroke-dasharray:none;stroke-opacity:1"
       id="rect850"
       width="27.076725"
       height="26.458336"
       x="95.318779"
       y="128.80058"
       ry="3.6040778" />
    <rect
       style="opacity:1;fill:#969696;fill-opacity:1;stroke:none;stroke-width:0.33178031;stroke-miterlimit:4;stroke-dasharray:none;stroke-dashoffset:0;stroke-opacity:1"
       id="rect863"
       width="14.816668"
       height="2.6458333"
       x="107.56817"
       y="137.97847" />
    <path
       inkscape:connector-curvature="0"
       style="fill:none;stroke:#fce6d6;stroke-width:0.1234747;stroke-linecap:butt;stroke-linejoin:miter;stroke-miterlimit:4;stroke-dasharray:none;stroke-opacity:1"
       d="m 107.56817,140.57706 h 14.81667"
       id="path897" />
    <path
       inkscape:connector-curvature="0"
       style="fill:none;stroke:#f0f0f0;stroke-width:0.1234747;stroke-linecap:butt;stroke-linejoin:miter;stroke-miterlimit:4;stroke-dasharray:none;stroke-opacity:1"
       d="m 107.56817,138.06098 h 14.81667"
       id="path897-7" />
    <path
       style="fill:#969696;fill-opacity:1;stroke:none;stroke-width:0.26458332px;stroke-linecap:butt;stroke-linejoin:miter;stroke-opacity:1"
       d="m 122.38484,144.05547 c -3.45367,0.95961 -3.28297,2.83864 -3.49643,3.75377 -0.81015,4.4643 -16.39435,2.882 -16.39435,2.882 0,0 -7.28394,3.52268 6.14175,3.44888 8.59896,-0.0472 11.7823,-2.13687 11.67008,-5.48028 -0.0608,-1.81041 0.19244,-3.01217 2.07895,-3.71967 z"
       id="path1301"
       inkscape:connector-curvature="0" />
    <g
       id="g831"
       transform="matrix(0.88935351,0,0,1.0000003,12.003472,-3.2581087e-5)">
      <rect
         y="128.8006"
         x="97.845764"
         height="26.458342"
         width="10.473661"
         id="rect821"
         style="opacity:1;fill:#c8c8c8;fill-opacity:1;stroke:none;stroke-width:1.99952221;stroke-miterlimit:4;stroke-dasharray:none;stroke-opacity:1" />
      <path
         id="path823"
         d="m 103.0826,128.80059 v 26.45833"
         style="fill:#ffffff;stroke:#ffffff;stroke-width:0.56206495;stroke-linecap:butt;stroke-linejoin:miter;stroke-miterlimit:4;stroke-dasharray:2.24825981, 4.49651962;stroke-dashoffset:0;stroke-opacity:1"
         inkscape:connector-curvature="0" />
      <path
         id="path825"
         d="m 97.845768,128.80059 v 26.45833"
         style="fill:none;stroke:#ffffff;stroke-width:0.46258444;stroke-linecap:butt;stroke-linejoin:miter;stroke-miterlimit:4;stroke-dasharray:none;stroke-opacity:1"
         inkscape:connector-curvature="0" />
      <path
         id="path825-3"
         d="m 108.31943,128.80059 v 26.45833"
         style="fill:none;stroke:#ffffff;stroke-width:0.46258444;stroke-linecap:butt;stroke-linejoin:miter;stroke-miterlimit:4;stroke-dasharray:none;stroke-opacity:1"
         inkscape:connector-curvature="0" />
    </g>
    <path
       d="m 113.171,137.3904 -1.37872,-0.22509 0.86888,-1.12869 c 0.45045,0.3927 0.50649,0.86417 0.50984,1.35378 m 0.37927,0.0826 c 0.002,-0.0491 0.0102,-0.12771 0.0102,-0.18277 0,-0.55849 -0.18076,-1.10125 -0.67113,-1.55238 l 0.51071,-0.61155 0.79049,2.41156 z m 3.03414,-2.40013 -0.0439,-0.13424 -2.81548,-0.003 0.74894,2.27049 0.0323,-0.23686 h -0.0862 l 0.0108,-0.15075 h 0.37687 l -0.0108,0.13999 h -0.0969 l -0.0216,0.25837 c 0,0 1.89509,-2.13264 1.90583,-2.14339 m 1.24699,2.1811 c -0.37812,-0.30029 -0.67238,-0.5866 -0.88461,-1.15939 -0.33503,0.30395 -0.52606,0.74347 -0.52606,1.19566 0,0.89822 0.73253,1.63076 1.63067,1.63076 0.89823,0 1.63076,-0.73254 1.63076,-1.63076 0,-0.89813 -0.73253,-1.63067 -1.63076,-1.63067 -0.28659,0 -0.5797,0.0828 -0.81591,0.22231 0.15994,0.50533 0.31546,0.766 0.80756,1.16216 0.11945,0.005 0.21031,0.10094 0.21031,0.21532 0,0.11858 -0.0967,0.21538 -0.2153,0.21538 -0.11868,0 -0.20666,-0.0968 -0.20666,-0.22077 m -4.71815,0.48288 c -0.1845,0.68736 -0.84057,1.18415 -1.56677,1.18415 -0.89823,0 -1.63077,-0.73254 -1.63077,-1.63076 0,-0.89813 0.73254,-1.63067 1.63077,-1.63067 0.28668,0 0.61836,0.0676 0.86033,0.20924 l -0.88509,1.17523 c -0.10832,0.002 -0.20253,0.0984 -0.20253,0.21532 0,0.11858 0.0967,0.21538 0.21539,0.21538 0.0328,0 0.0673,-0.009 0.0964,-0.0221 z m 4.00576,-2.23242 -0.57768,-1.59372 0.18307,-0.31223 -0.36603,-0.39833 h -0.78607 l -0.0108,0.22604 h 0.68907 l 0.13998,0.15074 -0.16147,0.2907 0.20311,0.71986 h -2.82086 l -0.0431,-0.13162 c 0.22662,-0.0295 0.61769,-0.16916 0.71104,-0.25032 0.0935,-0.0811 0.0117,-0.15573 -0.0947,-0.15919 -0.55676,-0.0239 -1.3839,-0.0703 -1.54105,-0.0709 -0.15707,-7.4e-4 -0.17318,0.0783 -0.068,0.19333 0.10525,0.11503 0.19716,0.21866 0.59562,0.28043 l 0.10765,0.29071 -0.66749,0.82685 c -0.3146,-0.19092 -0.69511,-0.29033 -1.06488,-0.29033 -1.10921,0 -2.01387,0.90465 -2.01387,2.01389 0,1.1093 0.90466,2.01396 2.01387,2.01396 0.91262,0 1.715,-0.62932 1.95083,-1.49915 l 0.61328,0.11025 c 0.0263,0.0721 0.0875,0.1277 0.16061,0.17107 l -0.10938,0.51887 h -0.13997 l -0.0107,0.13998 0.44144,0.0216 v -0.15072 h -0.10765 l 0.13326,-0.51859 c 0.19842,-0.0325 0.30242,-0.20235 0.24332,-0.37093 l 2.0037,-2.2661 0.0897,0.24312 c -0.48625,0.38301 -0.77734,0.97305 -0.77734,1.58664 0,1.1093 0.90466,2.01396 2.01387,2.01396 1.1092,2e-5 2.01396,-0.90465 2.01396,-2.01395 0,-1.10922 -0.90476,-2.01386 -2.01397,-2.01386 -0.32256,0 -0.6529,0.0787 -0.93238,0.22805"
       style="fill:#ffffff;fill-opacity:1;fill-rule:evenodd;stroke:none;stroke-width:0.07675536"
       id="path3837"
       inkscape:connector-curvature="0" />
    <g
       id="g1262"
       transform="matrix(0.11907477,-0.00929935,0.00929935,0.11907477,109.44515,114.0575)"
       style="fill:#ffffff">
      <path
         style="fill:#ffffff;stroke-width:0.26458332"
         id="path8"
         d="m 16.626748,260.48721 c 3.288242,0 5.94651,-2.64308 5.94651,-5.89809 0,-3.24909 -2.658268,-5.87587 -5.94651,-5.87587 -3.288241,0 -5.963179,2.62668 -5.963179,5.87587 0,3.2549 2.674938,5.89809 5.963179,5.89809 z"
         inkscape:connector-curvature="0" />
      <path
         style="fill:#ffffff;stroke-width:0.26458332"
         id="path10"
         d="m 6.563824,261.46087 c 0.230653,-0.90667 -0.348853,-1.80834 -1.249865,-2.03625 0,0 -4.96120251,-1.17944 -4.96120251,-1.17944 -0.9291108,-0.21153 -1.84668579,0.32835 -2.05570659,1.23002 0,0 -4.1719501,17.06007 -4.1719501,17.06007 -0.2306532,0.90668 0.3322902,1.80835 1.2498653,2.03626 0,0 4.97787079,1.17944 4.97787079,1.17944 0.90098561,0.22791 1.83009651,-0.32835 2.04417081,-1.235 0,0 4.1669233,-17.05504 4.1669233,-17.05504 0,0 -1.06e-4,-6e-5 -1.06e-4,-6e-5 z"
         inkscape:connector-curvature="0" />
      <path
         style="fill:#ffffff;stroke-width:0.26458332"
         id="path12"
         d="m 29.471977,322.12798 c 0,0.0335 -0.01656,0.0669 -0.01656,0.0833 0,0.75139 0.619151,1.3575 1.373823,1.3575 0.686911,0 1.267168,-0.52277 1.351491,-1.17944 0,0 10.000985,-53.5728 10.000985,-53.5728 0,0 0,-0.10541 0,-0.10541 0,-0.72861 -0.602588,-1.34112 -1.357262,-1.34112 -0.686911,0 -1.216713,0.52276 -1.35726,1.18515 0,0 -9.995164,53.57283 -9.995164,53.57283 0,0 -5.3e-5,-1e-5 -5.3e-5,-1e-5 z"
         inkscape:connector-curvature="0" />
      <path
         style="fill:#ffffff;stroke-width:0.26458332"
         id="path14"
         d="m -3.7803262,318.61696 c -0.056221,0.27847 -0.073517,0.55626 -0.073517,0.83473 0,2.29267 1.869731,4.13438 4.18914792,4.13438 1.90362418,0 3.50228958,-1.25208 4.01478728,-2.95433 l 7.196402,-29.44019 6.859059,29.26821 c 0.43897,1.80834 2.094626,3.12737 4.042832,3.12737 2.326005,0 4.189148,-1.84182 4.189148,-4.13438 0,-0.31694 -0.03388,-0.61182 -0.0901,-0.90667 l -9.408582,-38.87788 0.788538,-3.42714 0.619151,2.69292 c 0.562954,1.75848 2.178975,1.93085 2.178975,1.93085 l 9.696979,2.43724 c 0.191733,0.0335 0.388514,0.0499 0.580231,0.0499 1.582156,0 2.866496,-1.25209 2.866496,-2.81544 0,-1.34112 -0.929111,-2.4707 -2.196253,-2.76568 l -8.395758,-2.08683 -2.302934,-9.25327 c -1.092728,-5.16361 -6.087003,-5.04111 -6.087003,-5.04111 -4.853781,-0.1225 -6.0706,4.92443 -6.0706,4.92443 l -12.5973405,52.30279 z"
         inkscape:connector-curvature="0" />
    </g>
  </g>
</svg>
