<?xml version="1.0" encoding="UTF-8" standalone="no"?>
<svg
   xmlns:dc="http://purl.org/dc/elements/1.1/"
   xmlns:cc="http://creativecommons.org/ns#"
   xmlns:rdf="http://www.w3.org/1999/02/22-rdf-syntax-ns#"
   xmlns:svg="http://www.w3.org/2000/svg"
   xmlns="http://www.w3.org/2000/svg"
   xmlns:sodipodi="http://sodipodi.sourceforge.net/DTD/sodipodi-0.dtd"
   xmlns:inkscape="http://www.inkscape.org/namespaces/inkscape"
   width="18.620352"
   height="19.999502"
   version="1.1"
   viewBox="0 0 41.03429 106.5104"
   xml:space="preserve"
   id="svg10"
   sodipodi:docname="metager-schloss.svg"
   inkscape:version="1.0.2 (e86c870879, 2021-01-15)"><defs
     id="defs14" /><sodipodi:namedview
     pagecolor="#ffffff"
     bordercolor="#666666"
     borderopacity="1"
     objecttolerance="10"
     gridtolerance="10"
     guidetolerance="10"
     inkscape:pageopacity="0"
     inkscape:pageshadow="2"
     inkscape:window-width="2560"
     inkscape:window-height="1356"
     id="namedview12"
     showgrid="false"
     fit-margin-top="0"
     fit-margin-left="0"
     fit-margin-right="0"
     fit-margin-bottom="0"
     inkscape:zoom="23.6"
     inkscape:cx="9.3137904"
     inkscape:cy="9.9993705"
     inkscape:window-x="0"
     inkscape:window-y="480"
     inkscape:window-maximized="1"
     inkscape:current-layer="svg10"
     inkscape:document-rotation="0" /><metadata
     id="metadata2"><rdf:RDF><cc:Work
         rdf:about=""><dc:format>image/svg+xml</dc:format><dc:type
           rdf:resource="http://purl.org/dc/dcmitype/StillImage" /><dc:title /></cc:Work></rdf:RDF></metadata><g
     transform="matrix(1.3333,0,0,-1.3333,-402.85761,107.42665)"
     id="g8"
     style="fill:#595959;fill-opacity:1"><g
       transform="scale(0.1)"
       id="g6"
       style="fill:#595959;fill-opacity:1"><path
         d="M 2828,805.72 V 575.4 h 69.31 c 27.25,0 40.87,14.426 40.87,42.879 v 78.789 h 345.86 c 101.01,0 151.51,-53.668 151.51,-157.63 v -85.7 h -497.37 l 0.01,-52.015 c 0,-28.313 -13.75,-42.871 -40.87,-42.871 h -93.81 v -140.79 c 0,-140.79 70.4,-211.19 212.72,-211.19 h 281.59 c 165.27,0 249.45,85.699 249.45,255.57 v 287.7 c 0,169.87 -84.18,255.57 -249.45,255.57 z m 289.79,-446.87 h 74.76 c 50.36,0 69.52,-25.856 69.52,-74.098 v -112.79 c 0,-38.305 -19.21,-58.168 -56.76,-58.168 h -38.57 c -32.53,0 -48.95,19.25 -48.95,57.465 v 187.59"
         fill="#00000"
         id="path4"
         style="fill:#595959;fill-opacity:1" /></g></g></svg>
