<?xml version="1.0" encoding="UTF-8"?>
<svg width="99.168" height="106.51" version="1.1" viewBox="0 0 99.167999 106.51305" xml:space="preserve" xmlns="http://www.w3.org/2000/svg" xmlns:cc="http://creativecommons.org/ns#" xmlns:dc="http://purl.org/dc/elements/1.1/" xmlns:rdf="http://www.w3.org/1999/02/22-rdf-syntax-ns#"><metadata><rdf:RDF><cc:Work rdf:about=""><dc:format>image/svg+xml</dc:format><dc:type rdf:resource="http://purl.org/dc/dcmitype/StillImage"/><dc:title/></cc:Work></rdf:RDF></metadata><g transform="matrix(1.3333 0 0 -1.3333 -373.81 107.43)"><g transform="scale(.1)"><path d="m2828 805.72v-230.32h69.31c27.25 0 40.87 14.426 40.87 42.879v78.789h345.86c101.01 0 151.51-53.668 151.51-157.63v-85.7h-497.37l0.01-52.015c0-28.313-13.75-42.871-40.87-42.871h-93.81v-140.79c0-140.79 70.4-211.19 212.72-211.19h281.59c165.27 0 249.45 85.699 249.45 255.57v287.7c0 169.87-84.18 255.57-249.45 255.57zm289.79-446.87h74.76c50.36 0 69.52-25.856 69.52-74.098v-112.79c0-38.305-19.21-58.168-56.76-58.168h-38.57c-32.53 0-48.95 19.25-48.95 57.465v187.59" fill="#f47216"/></g></g></svg>
