<?xml version="1.0" encoding="UTF-8" standalone="no"?>
<svg
   xmlns:dc="http://purl.org/dc/elements/1.1/"
   xmlns:cc="http://creativecommons.org/ns#"
   xmlns:rdf="http://www.w3.org/1999/02/22-rdf-syntax-ns#"
   xmlns:svg="http://www.w3.org/2000/svg"
   xmlns="http://www.w3.org/2000/svg"
   xmlns:xlink="http://www.w3.org/1999/xlink"
   id="svg8"
   version="1.1"
   viewBox="0 0 15.681789 15.681206"
   height="59.267548"
   width="59.269756">
  <defs
     id="defs2">
    <linearGradient
       id="linearGradient2460">
      <stop
         id="stop2456"
         offset="0"
         style="stop-color:#666666;stop-opacity:1;" />
      <stop
         id="stop2458"
         offset="1"
         style="stop-color:#666666;stop-opacity:0.5" />
    </linearGradient>
    <linearGradient
       gradientTransform="matrix(0.22994292,0,0,0.22994292,1.7319905,272.27393)"
       gradientUnits="userSpaceOnUse"
       y2="83.034737"
       x2="83.742043"
       y1="50.177593"
       x1="16.07939"
       id="linearGradient2462"
       xlink:href="#linearGradient2460" />
  </defs>
  <metadata
     id="metadata5">
    <rdf:RDF>
      <cc:Work
         rdf:about="">
        <dc:format>image/svg+xml</dc:format>
        <dc:type
           rdf:resource="http://purl.org/dc/dcmitype/StillImage" />
        <dc:title></dc:title>
      </cc:Work>
    </rdf:RDF>
  </metadata>
  <g
     transform="translate(-5.3882718,-275.93021)"
     id="layer1">
    <rect
       ry="3.9087646"
       y="271.84094"
       x="1.2992932"
       height="23.859747"
       width="23.859747"
       id="rect28"
       style="fill:none;fill-opacity:1;stroke:none;stroke-width:17.69223785;stroke-miterlimit:4;stroke-dasharray:none;stroke-opacity:1" />
    <path
       id="rect845"
       d="m 13.017158,277.28013 c -0.0053,0 -0.0099,0.005 -0.0099,0.01 v 6.25921 H 6.7480696 c -0.00536,0 -0.00988,0.005 -0.00988,0.01 v 0.42396 c 0,0.005 0.00452,0.01 0.00988,0.01 h 6.2592084 v 6.2592 c 0,0.005 0.0045,0.009 0.0099,0.009 h 0.423958 c 0.0053,0 0.0099,-0.004 0.0099,-0.009 v -6.2592 h 6.259208 c 0.0053,0 0.0099,-0.005 0.0099,-0.01 v -0.42396 c 0,-0.005 -0.0045,-0.01 -0.0099,-0.01 h -6.259208 v -6.25921 c 0,-0.005 -0.0045,-0.01 -0.0099,-0.01 z"
       style="fill:none;fill-opacity:1;stroke:url(#linearGradient2462);stroke-width:2.69983554;stroke-miterlimit:4;stroke-dasharray:none;stroke-opacity:1" />
  </g>
</svg>
