<?xml version="1.0" encoding="UTF-8" standalone="no"?>
<svg
   xmlns:dc="http://purl.org/dc/elements/1.1/"
   xmlns:cc="http://creativecommons.org/ns#"
   xmlns:rdf="http://www.w3.org/1999/02/22-rdf-syntax-ns#"
   xmlns:svg="http://www.w3.org/2000/svg"
   xmlns="http://www.w3.org/2000/svg"
   xmlns:sodipodi="http://sodipodi.sourceforge.net/DTD/sodipodi-0.dtd"
   xmlns:inkscape="http://www.inkscape.org/namespaces/inkscape"
   id="svg10"
   xml:space="preserve"
   viewBox="0 0 146.21562 379.52535"
   version="1.1"
   height="71.263634"
   width="66.349052"
   sodipodi:docname="proxy.svg"
   inkscape:version="0.92.5 (2060ec1f9f, 2020-04-08)"><sodipodi:namedview
     pagecolor="#ffffff"
     bordercolor="#666666"
     borderopacity="1"
     objecttolerance="10"
     gridtolerance="10"
     guidetolerance="10"
     inkscape:pageopacity="0"
     inkscape:pageshadow="2"
     inkscape:window-width="1848"
     inkscape:window-height="1016"
     id="namedview7"
     showgrid="true"
     inkscape:snap-global="false"
     inkscape:zoom="4.9917265"
     inkscape:cx="-21.86993"
     inkscape:cy="29.40011"
     inkscape:window-x="1992"
     inkscape:window-y="27"
     inkscape:window-maximized="1"
     inkscape:current-layer="svg10"
     fit-margin-top="0"
     fit-margin-left="0"
     fit-margin-right="0"
     fit-margin-bottom="0"><inkscape:grid
       type="xygrid"
       id="grid814"
       originx="-2.36192"
       originy="3.4247368" /></sodipodi:namedview><defs
     id="defs14"><inkscape:path-effect
       effect="bspline"
       id="path-effect1246"
       is_visible="true"
       weight="33.333333"
       steps="2"
       helper_size="0"
       apply_no_weight="true"
       apply_with_weight="true"
       only_selected="false" /><marker
       style="overflow:visible"
       id="DistanceEnd"
       refX="0"
       refY="0"
       orient="auto"
       inkscape:stockid="DistanceEnd"
       inkscape:isstock="true"><g
         id="g2301"
         style="fill:#000000;fill-opacity:1;stroke:#000000;stroke-opacity:1"><path
           style="fill:#000000;fill-opacity:1;stroke:#000000;stroke-width:1.14999998;stroke-linecap:square;stroke-opacity:1"
           d="M 0,0 H -2"
           id="path2316"
           inkscape:connector-curvature="0" /><path
           style="fill:#000000;fill-opacity:1;fill-rule:evenodd;stroke:#000000;stroke-opacity:1"
           d="m 0,0 -13,4 4,-4 -4,-4 z"
           id="path2312"
           inkscape:connector-curvature="0" /><path
           style="fill:#000000;fill-opacity:1;stroke:#000000;stroke-width:1;stroke-linecap:square;stroke-opacity:1"
           d="M 0,-4 V 40"
           id="path2314"
           inkscape:connector-curvature="0" /></g></marker><marker
       inkscape:stockid="Arrow1Mstart"
       orient="auto"
       refY="0"
       refX="0"
       id="Arrow1Mstart"
       style="overflow:visible"
       inkscape:isstock="true"><path
         id="path880"
         d="M 0,0 5,-5 -12.5,0 5,5 Z"
         style="fill:#000000;fill-opacity:1;fill-rule:evenodd;stroke:#000000;stroke-width:1.00000003pt;stroke-opacity:1"
         transform="matrix(0.4,0,0,0.4,4,0)"
         inkscape:connector-curvature="0" /></marker><marker
       inkscape:stockid="Arrow1Lend"
       orient="auto"
       refY="0"
       refX="0"
       id="Arrow1Lend"
       style="overflow:visible"
       inkscape:isstock="true"><path
         id="path877"
         d="M 0,0 5,-5 -12.5,0 5,5 Z"
         style="fill:#000000;fill-opacity:1;fill-rule:evenodd;stroke:#000000;stroke-width:1.00000003pt;stroke-opacity:1"
         transform="matrix(-0.8,0,0,-0.8,-10,0)"
         inkscape:connector-curvature="0" /></marker><inkscape:path-effect
       effect="bspline"
       id="path-effect837"
       is_visible="true"
       weight="33.333333"
       steps="2"
       helper_size="0"
       apply_no_weight="true"
       apply_with_weight="true"
       only_selected="false" /><inkscape:path-effect
       effect="bspline"
       id="path-effect833"
       is_visible="true"
       weight="33.333333"
       steps="2"
       helper_size="0"
       apply_no_weight="true"
       apply_with_weight="true"
       only_selected="false" /><inkscape:path-effect
       effect="bspline"
       id="path-effect829"
       is_visible="true"
       weight="33.333333"
       steps="2"
       helper_size="0"
       apply_no_weight="true"
       apply_with_weight="true"
       only_selected="false" /><inkscape:path-effect
       effect="bspline"
       id="path-effect837-3"
       is_visible="true"
       weight="33.333333"
       steps="2"
       helper_size="0"
       apply_no_weight="true"
       apply_with_weight="true"
       only_selected="false" /></defs><metadata
     id="metadata2"><rdf:RDF><cc:Work
         rdf:about=""><dc:format>image/svg+xml</dc:format><dc:type
           rdf:resource="http://purl.org/dc/dcmitype/StillImage" /><dc:title /></cc:Work></rdf:RDF></metadata><g
     transform="matrix(0.73467465,0,0,-0.73467465,-2250.4508,465.71878)"
     id="g6"
     style="fill:#969696;fill-opacity:1"><path
       d="M 2938.0555,633.9116 V 484.97095 h 44.8207 c 17.6217,0 26.4293,9.32884 26.4293,27.72849 v 50.95035 h 223.6567 c 65.32,0 97.9767,-34.70539 97.9767,-101.93432 V 406.296 h -321.6334 l 0.01,-33.63645 c 0,-18.30913 -8.8917,-27.72332 -26.4293,-27.72332 h -60.6639 v -91.04444 c 0,-91.04444 45.5233,-136.56988 137.5572,-136.56988 h 182.0953 c 106.8749,0 161.3114,55.41883 161.3114,165.26902 V 468.6374 c 0,109.84956 -54.4365,165.26903 -161.3114,165.26903 z"
       id="path4"
       style="fill:#969696;fill-opacity:1;stroke-width:0.64666831"
       inkscape:connector-curvature="0"
       sodipodi:nodetypes="ccsscsscccscssssscc" /></g><path
     style="fill:#ffffff;fill-opacity:1;stroke:none;stroke-width:5.3256526px;stroke-linecap:butt;stroke-linejoin:miter;stroke-opacity:1"
     d="m -28.181019,275.76926 c 0.05061,-3.59639 56.835832,-47.27733 107.406526,-47.51102 50.570693,-0.23369 108.313483,41.23613 108.246783,46.3978 -0.0667,5.16168 -66.0103,46.37643 -109.75427,46.58318 -43.743969,0.20674 -105.949646,-41.87356 -105.899039,-45.46996 z"
     id="path1244"
     inkscape:connector-curvature="0"
     inkscape:path-effect="#path-effect1246"
     inkscape:original-d="m -33.153062,276.03645 c 5.022055,-3.86435 61.80728,-47.54529 110.957175,-85.35167 51.996427,37.33373 109.739217,78.80355 117.358547,84.28477 -7.75797,4.84673 -73.70157,46.06148 -119.492338,74.68271 C 33.978193,321.43984 -28.227482,279.35953 -33.153062,276.03645 Z"
     sodipodi:nodetypes="ccccc"
     transform="translate(-5.7079344,-3.4247371)" /><path
     style="opacity:1;fill:#969696;fill-opacity:1;stroke:none;stroke-width:71.29497528;stroke-miterlimit:4;stroke-dasharray:none;stroke-opacity:1"
     d="m 71.066946,228.68073 a 39.942394,39.942394 0 0 0 -39.9424,39.94239 39.942394,39.942394 0 0 0 39.9424,39.9424 39.942394,39.942394 0 0 0 39.942394,-39.9424 39.942394,39.942394 0 0 0 -4.9616,-19.18067 14.439076,14.439076 0 0 1 -14.156664,11.57706 14.439076,14.439076 0 0 1 -14.43751,-14.43752 14.439076,14.439076 0 0 1 10.80732,-13.95903 39.942394,39.942394 0 0 0 -17.19394,-3.94223 z"
     id="path818"
     inkscape:connector-curvature="0" /></svg>