<?xml version="1.0" encoding="UTF-8" standalone="no"?>
<svg
   xmlns:dc="http://purl.org/dc/elements/1.1/"
   xmlns:cc="http://creativecommons.org/ns#"
   xmlns:rdf="http://www.w3.org/1999/02/22-rdf-syntax-ns#"
   xmlns:svg="http://www.w3.org/2000/svg"
   xmlns="http://www.w3.org/2000/svg"
   width="97.040092"
   height="48.206394"
   viewBox="0 0 25.675195 12.754608"
   version="1.1"
   id="svg841">
  <defs
     id="defs835" />
  <metadata
     id="metadata838">
    <rdf:RDF>
      <cc:Work
         rdf:about="">
        <dc:format>image/svg+xml</dc:format>
        <dc:type
           rdf:resource="http://purl.org/dc/dcmitype/StillImage" />
        <dc:title></dc:title>
      </cc:Work>
    </rdf:RDF>
  </metadata>
  <g
     id="layer1"
     transform="translate(-32.702761,-97.665854)">
    <g
       transform="matrix(0.24698373,0,0,0.24698373,24.722423,81.456108)"
       id="g833">
      <path
         d="M 55.098688,117.27232 A 29.190001,27.525 0 0 1 84.288689,89.747324 29.190001,27.525 0 0 1 113.47869,117.27232"
         id="path1386"
         style="fill:none;fill-opacity:1;stroke:#ffd600;stroke-width:12.66499996;stroke-miterlimit:4;stroke-dasharray:none;stroke-opacity:1" />
      <path
         d="m 70.870534,117.27232 a 13.418155,11.283 0 0 1 13.418155,-11.283 13.418155,11.283 0 0 1 13.418154,11.283"
         id="path1388"
         style="fill:none;fill-opacity:1;stroke:#00a888;stroke-width:10.26500034;stroke-miterlimit:4;stroke-dasharray:none;stroke-opacity:1" />
      <path
         d="m 38.74369,117.27232 c 2e-6,-22.376072 16.377004,-40.955307 37.882185,-44.571872 2.49128,-0.418963 5.051381,-0.637124 7.662815,-0.637124 25.15381,1e-6 45.545,20.240756 45.545,45.208996"
         id="path1390"
         style="fill:none;fill-opacity:1;stroke:#ce2026;stroke-width:12.86499977;stroke-miterlimit:4;stroke-dasharray:none;stroke-opacity:1" />
    </g>
  </g>
</svg>
