<?xml version="1.0" encoding="UTF-8" standalone="no"?>
<!-- Created with Inkscape (http://www.inkscape.org/) -->

<svg
   xmlns:dc="http://purl.org/dc/elements/1.1/"
   xmlns:cc="http://creativecommons.org/ns#"
   xmlns:rdf="http://www.w3.org/1999/02/22-rdf-syntax-ns#"
   xmlns:svg="http://www.w3.org/2000/svg"
   xmlns="http://www.w3.org/2000/svg"
   xmlns:sodipodi="http://sodipodi.sourceforge.net/DTD/sodipodi-0.dtd"
   xmlns:inkscape="http://www.inkscape.org/namespaces/inkscape"
   width="43.154655"
   height="37.588097"
   viewBox="0 0 11.418003 9.9451843"
   version="1.1"
   id="svg5"
   sodipodi:docname="Stopwords-icon-help.svg"
   inkscape:version="0.92.5 (2060ec1f9f, 2020-04-08)">
  <metadata
     id="metadata16">
    <rdf:RDF>
      <cc:Work
         rdf:about="">
        <dc:format>image/svg+xml</dc:format>
        <dc:type
           rdf:resource="http://purl.org/dc/dcmitype/StillImage" />
        <dc:title></dc:title>
      </cc:Work>
    </rdf:RDF>
  </metadata>
  <sodipodi:namedview
     pagecolor="#ffffff"
     bordercolor="#666666"
     borderopacity="1"
     objecttolerance="10"
     gridtolerance="10"
     guidetolerance="10"
     inkscape:pageopacity="0"
     inkscape:pageshadow="2"
     inkscape:window-width="833"
     inkscape:window-height="480"
     id="namedview14"
     showgrid="false"
     fit-margin-top="0"
     fit-margin-left="0"
     fit-margin-right="0"
     fit-margin-bottom="0"
     inkscape:zoom="6.66"
     inkscape:cx="40.527212"
     inkscape:cy="14.59015"
     inkscape:window-x="2390"
     inkscape:window-y="182"
     inkscape:window-maximized="0"
     inkscape:current-layer="svg5" />
  <defs
     id="defs2" />
  <path
     inkscape:connector-curvature="0"
     id="path1594"
     d="M 2.7992253,0.1533918 H 5.4450586 L 8.0908912,2.7992253 V 5.4450587 L 5.4450586,8.0908917 H 2.7992253 L 0.1533921,5.4450587 V 2.7992253 Z"
     style="fill:#666666;fill-opacity:1;stroke:#ffffff;stroke-width:0.16500001;stroke-linecap:butt;stroke-linejoin:miter;stroke-miterlimit:4;stroke-dasharray:none;stroke-opacity:1" />
  <path
     inkscape:connector-curvature="0"
     id="path1594-5"
     d="M 2.7771766,0.0872458 H 5.4671071 L 8.1570372,2.7771764 V 5.4671057 L 5.4671071,8.1570377 H 2.7771766 L 0.0872461,5.4671057 V 2.7771764 Z"
     style="fill:none;fill-opacity:1;stroke:#000000;stroke-width:0.0354542;stroke-linecap:butt;stroke-linejoin:miter;stroke-miterlimit:4;stroke-dasharray:none;stroke-opacity:1" />
  <path
     inkscape:connector-curvature="0"
     id="path1594-5-3"
     d="M 2.759761,0.035 H 5.4845221 L 8.2092832,2.7597611 V 5.4845217 L 5.4845221,8.2092837 H 2.759761 L 0.035,5.4845217 V 2.7597611 Z"
     style="fill:none;fill-opacity:1;stroke:#ffffff;stroke-width:0.07;stroke-linecap:butt;stroke-linejoin:miter;stroke-miterlimit:4;stroke-dasharray:none;stroke-opacity:1" />
  <g
     aria-label="STOP"
     style="font-style:normal;font-weight:normal;font-size:2.11666989px;line-height:1.25;font-family:sans-serif;fill:#ffffff;fill-opacity:1;stroke:none;stroke-width:0.26458299"
     id="text9507">
    <path
       d="M 2.4318024,3.4002215 V 3.603827 q -0.1188559,-0.056844 -0.224276,-0.08475 -0.1054201,-0.027905 -0.2036055,-0.027905 -0.1705325,0 -0.2635502,0.066146 -0.091984,0.066146 -0.091984,0.1881025 0,0.1023195 0.060978,0.1550295 0.062012,0.051677 0.2335778,0.083716 l 0.1260907,0.025838 q 0.2335779,0.044442 0.3441656,0.1570965 0.1116213,0.1116213 0.1116213,0.2997238 0,0.2242761 -0.1508955,0.3400315 -0.1498618,0.1157553 -0.4402838,0.1157553 -0.1095542,0 -0.2335779,-0.024805 Q 1.5770729,4.8730021 1.4447811,4.8244262 V 4.6094519 q 0.1271242,0.071314 0.2490808,0.1074871 0.1219565,0.036174 0.239779,0.036174 0.1788007,0 0.2759525,-0.07028 0.097152,-0.07028 0.097152,-0.2005048 0,-0.1136884 -0.07028,-0.1777672 Q 2.1672187,4.2404816 2.008055,4.2084422 L 1.8809308,4.1836374 Q 1.647353,4.1371286 1.5429664,4.0379097 1.4385799,3.9386908 1.4385799,3.7619571 q 0,-0.204639 0.1436607,-0.3224614 0.1446942,-0.1178225 0.3979091,-0.1178225 0.1085207,0 0.2211755,0.019637 0.1126548,0.019637 0.2304772,0.058911 z"
       style="font-size:2.11666989px;fill:#ffffff;fill-opacity:1;stroke-width:0.26458299"
       id="path15" />
    <path
       d="M 2.6364414,3.3495785 H 3.9417901 V 3.5252787 H 3.3940191 V 4.8926392 H 3.1842125 V 3.5252787 H 2.6364414 Z"
       style="font-size:2.11666989px;fill:#ffffff;fill-opacity:1;stroke-width:0.26458299"
       id="path17" />
    <path
       d="m 4.7696478,3.4911722 q -0.2273766,0 -0.3617355,0.1694989 -0.1333254,0.169499 -0.1333254,0.461988 0,0.2914556 0.1333254,0.4609545 0.1343589,0.169499 0.3617355,0.169499 0.2273767,0 0.3596686,-0.169499 0.1333254,-0.1694989 0.1333254,-0.4609545 0,-0.292489 -0.1333254,-0.461988 Q 4.9970245,3.4911722 4.7696478,3.4911722 Z m 0,-0.169499 q 0.3245285,0 0.5188322,0.2180749 0.1943037,0.2170413 0.1943037,0.582911 0,0.3648362 -0.1943037,0.5829111 -0.1943037,0.2170413 -0.5188322,0.2170413 -0.325562,0 -0.5208992,-0.2170413 -0.1943037,-0.2170414 -0.1943037,-0.5829111 0,-0.3658697 0.1943037,-0.582911 0.1953372,-0.2180749 0.5208992,-0.2180749 z"
       style="font-size:2.11666989px;fill:#ffffff;fill-opacity:1;stroke-width:0.26458299"
       id="path19" />
    <path
       d="M 6.0181525,3.5211446 V 4.100955 h 0.2625167 q 0.1457278,0 0.2253096,-0.075448 0.079582,-0.075448 0.079582,-0.2149743 0,-0.138493 -0.079582,-0.2139407 Q 6.426397,3.5211446 6.2806692,3.5211446 Z M 5.8093794,3.3495785 h 0.4712898 q 0.2594161,0 0.391708,0.1178225 0.1333254,0.1167889 0.1333254,0.343132 0,0.2284102 -0.1333254,0.3451991 Q 6.5400853,4.272521 6.2806692,4.272521 H 6.0181525 V 4.8926392 H 5.8093794 Z"
       style="font-size:2.11666989px;fill:#ffffff;fill-opacity:1;stroke-width:0.26458299"
       id="path21" />
  </g>
  <g
     style="stroke:#b3b3b3"
     transform="matrix(0.24364126,0,0,0.24364126,5.1151339,3.7362456)"
     id="layer1-4">
    <g
       style="stroke:#b3b3b3"
       transform="matrix(0.10921535,0.03001484,-0.03001484,0.10921535,4.9673534,-3.6991722)"
       id="g2304">
      <circle
         r="65.003975"
         cy="109.23066"
         cx="77.631805"
         id="path2298"
         style="fill:none;fill-opacity:1;stroke:#b3b3b3;stroke-width:17.42499924;stroke-miterlimit:4;stroke-dasharray:none;stroke-opacity:1" />
      <rect
         transform="matrix(0.44288089,-0.89658046,0.89380692,0.448452,0,0)"
         y="179.48938"
         x="-75.480446"
         height="104.90914"
         width="18.880049"
         id="rect2300"
         style="fill:#b3b3b3;fill-opacity:1;stroke:#b3b3b3;stroke-width:15.41429996;stroke-miterlimit:4;stroke-dasharray:none;stroke-opacity:1" />
    </g>
  </g>
</svg>
