<?xml version="1.0" encoding="UTF-8" standalone="no"?>
<svg
   xmlns:dc="http://purl.org/dc/elements/1.1/"
   xmlns:cc="http://creativecommons.org/ns#"
   xmlns:rdf="http://www.w3.org/1999/02/22-rdf-syntax-ns#"
   xmlns:svg="http://www.w3.org/2000/svg"
   xmlns="http://www.w3.org/2000/svg"
   xmlns:sodipodi="http://sodipodi.sourceforge.net/DTD/sodipodi-0.dtd"
   xmlns:inkscape="http://www.inkscape.org/namespaces/inkscape"
   width="100"
   height="100"
   viewBox="0 0 26.458332 26.458334"
   version="1.1"
   id="svg8"
   sodipodi:docname="trashcan.svg"
   inkscape:version="0.92.5 (2060ec1f9f, 2020-04-08)">
  <sodipodi:namedview
     pagecolor="#ffffff"
     bordercolor="#666666"
     borderopacity="1"
     objecttolerance="10"
     gridtolerance="10"
     guidetolerance="10"
     inkscape:pageopacity="0"
     inkscape:pageshadow="2"
     inkscape:window-width="1848"
     inkscape:window-height="1016"
     id="namedview9"
     showgrid="false"
     inkscape:zoom="2.36"
     inkscape:cx="50"
     inkscape:cy="50"
     inkscape:window-x="72"
     inkscape:window-y="27"
     inkscape:window-maximized="1"
     inkscape:current-layer="svg8" />
  <defs
     id="defs2" />
  <metadata
     id="metadata5">
    <rdf:RDF>
      <cc:Work
         rdf:about="">
        <dc:format>image/svg+xml</dc:format>
        <dc:type
           rdf:resource="http://purl.org/dc/dcmitype/StillImage" />
        <dc:title />
      </cc:Work>
    </rdf:RDF>
  </metadata>
  <g
     id="layer1"
     transform="matrix(1.6898605,0,0,1.6898605,-9.1262831,-14.679464)">
    <path
       id="path2921"
       style="color:#000000;font-style:normal;font-variant:normal;font-weight:normal;font-stretch:normal;font-size:medium;line-height:normal;font-family:sans-serif;font-variant-ligatures:normal;font-variant-position:normal;font-variant-caps:normal;font-variant-numeric:normal;font-variant-alternates:normal;font-feature-settings:normal;text-indent:0;text-align:start;text-decoration:none;text-decoration-line:none;text-decoration-style:solid;text-decoration-color:#000000;letter-spacing:normal;word-spacing:normal;text-transform:none;writing-mode:lr-tb;direction:ltr;text-orientation:mixed;dominant-baseline:auto;baseline-shift:baseline;text-anchor:start;white-space:normal;shape-padding:0;clip-rule:nonzero;display:inline;overflow:visible;visibility:visible;isolation:auto;mix-blend-mode:normal;color-interpolation:sRGB;color-interpolation-filters:linearRGB;solid-color:#000000;solid-opacity:1;vector-effect:none;fill:#000000;fill-opacity:1;fill-rule:nonzero;stroke:none;stroke-width:1.82402003;stroke-linecap:butt;stroke-linejoin:miter;stroke-miterlimit:4;stroke-dasharray:none;stroke-dashoffset:0;stroke-opacity:1;color-rendering:auto;image-rendering:auto;shape-rendering:auto;text-rendering:auto;enable-background:accumulate"
       d="m 30.169922,44.083984 c -0.585297,4e-6 -1.085938,0.50064 -1.085938,1.085938 v 44.660156 c 0,0.585275 0.500728,1.085934 1.085938,1.085938 h 39.65625 c 0.58518,-4e-6 1.083984,-0.500757 1.083984,-1.085938 V 45.169922 c 0,-0.585181 -0.498804,-1.085934 -1.083984,-1.085938 z m 5.05664,6.939454 h 0.132813 c 0.684927,-10e-7 1.261719,0.584605 1.261719,1.269531 v 29.484375 c 0,0.684922 -0.576792,1.269531 -1.261719,1.269531 h -0.132813 c -0.684925,0 -1.269531,-0.584609 -1.269531,-1.269531 V 52.292969 c 0,-0.685059 0.584395,-1.269531 1.269531,-1.269531 z m 15,0 h 0.132813 c 0.684858,-10e-7 1.261707,0.584669 1.261719,1.269531 v 29.484375 c 0,0.684858 -0.576861,1.269531 -1.261719,1.269531 h -0.132813 c -0.684989,0 -1.269531,-0.584462 -1.269531,-1.269531 V 52.292969 c 0,-0.684994 0.584463,-1.269531 1.269531,-1.269531 z m 14.416016,0 h 0.132813 c 0.68499,0 1.269531,0.584457 1.269531,1.269531 v 29.484375 c 0,0.68499 -0.584462,1.269531 -1.269531,1.269531 h -0.132813 c -0.684862,0 -1.269531,-0.584673 -1.269531,-1.269531 V 52.292969 c 0,-0.684994 0.584458,-1.269531 1.269531,-1.269531 z"
       transform="scale(0.26458333)"
       inkscape:connector-curvature="0" />
    <path
       id="rect860"
       style="fill:#000000;fill-opacity:1;stroke:#000000;stroke-width:0.51355898;stroke-opacity:1"
       d="M 7.4490804,9.8315563 H 19.009254 c 0.02257,0 0.04075,0.018173 0.04075,0.040747 v 0.8427427 c 0,0.02257 -0.01817,0.04075 -0.04075,0.04075 H 7.4490804 c -0.022574,0 -0.040747,-0.01817 -0.040747,-0.04075 V 9.8723034 c 0,-0.022574 0.018173,-0.040747 0.040747,-0.040747 z"
       inkscape:connector-curvature="0" />
    <path
       id="rect862"
       style="fill:#000000;fill-opacity:1;stroke:#000000;stroke-width:0.569175;stroke-opacity:1"
       d="m 11.855317,9.260417 h 2.392999 c 0.02171,0 0.03918,0.017476 0.03918,0.039184 v 1.051254 c 0,0.02171 -0.01748,0.03918 -0.03918,0.03918 h -2.392999 c -0.02171,0 -0.03918,-0.01748 -0.03918,-0.03918 V 9.2996012 c 0,-0.021708 0.01748,-0.039184 0.03918,-0.039184 z"
       inkscape:connector-curvature="0" />
  </g>
</svg>
